<svg xmlns="http://www.w3.org/2000/svg" viewBox="0 0 500 500" role="img" aria-label="Pocono AI">
  <!-- Compact tab icon — peak + glowing core node, no rounded card so it survives 16x16. -->
  <defs>
    <linearGradient id="favShield" x1="0%" y1="0%" x2="100%" y2="0%">
      <stop offset="0%" stop-color="#00A3FF"/>
      <stop offset="100%" stop-color="#188B96"/>
    </linearGradient>
    <linearGradient id="favPeakRight" x1="0%" y1="0%" x2="100%" y2="100%">
      <stop offset="0%" stop-color="#188B96"/>
      <stop offset="100%" stop-color="#0A2635"/>
    </linearGradient>
    <linearGradient id="favPeakLeft" x1="100%" y1="0%" x2="0%" y2="100%">
      <stop offset="0%" stop-color="#00A3FF"/>
      <stop offset="100%" stop-color="#0A2635"/>
    </linearGradient>
  </defs>
  <rect width="500" height="500" fill="#051622" rx="80"/>
  <path d="M 100 310 A 160 160 0 0 1 400 310" fill="none" stroke="url(#favShield)" stroke-width="22" stroke-linecap="round"/>
  <path d="M 250 130 L 250 360 L 120 360 L 120 315 L 165 315 L 165 250 L 210 250 L 210 185 Z" fill="url(#favPeakLeft)"/>
  <path d="M 250 130 L 290 185 L 290 250 L 335 250 L 335 315 L 380 315 L 380 360 L 250 360 Z" fill="url(#favPeakRight)"/>
  <circle cx="250" cy="290" r="22" fill="#051622"/>
  <circle cx="250" cy="290" r="12" fill="#00A3FF"/>
</svg>
