<svg xmlns="http://www.w3.org/2000/svg" viewBox="0 0 500 500" width="100%" height="100%">
  <rect width="500" height="500" fill="#051622" rx="20"/>

  <defs>
    <linearGradient id="shieldGrad" x1="0%" y1="0%" x2="100%" y2="0%">
      <stop offset="0%" stop-color="#00A3FF"/>
      <stop offset="100%" stop-color="#188B96"/>
    </linearGradient>
    <linearGradient id="mountainGradRight" x1="0%" y1="0%" x2="100%" y2="100%">
      <stop offset="0%" stop-color="#188B96"/>
      <stop offset="100%" stop-color="#0A2635"/> </linearGradient>
    <linearGradient id="mountainGradLeft" x1="100%" y1="0%" x2="0%" y2="100%">
      <stop offset="0%" stop-color="#00A3FF"/>
      <stop offset="100%" stop-color="#0A2635"/>
    </linearGradient>
  </defs>

  <path d="M 100 290 A 160 160 0 0 1 400 290" fill="none" stroke="url(#shieldGrad)" stroke-width="16" stroke-linecap="round"/>

  <path d="M 250 140 L 250 350 L 130 350 L 130 310 L 170 310 L 170 250 L 210 250 L 210 190 Z" fill="url(#mountainGradLeft)"/>

  <path d="M 250 140 L 290 190 L 290 250 L 330 250 L 330 310 L 370 310 L 370 350 L 250 350 Z" fill="url(#mountainGradRight)"/>

  <rect x="235" y="270" width="30" height="30" fill="#051622"/>
  <rect x="180" y="290" width="20" height="20" fill="#051622"/>
  <rect x="300" y="290" width="20" height="20" fill="#051622"/>
  
  <circle cx="250" cy="285" r="6" fill="#00A3FF"/>
</svg>
